<svg width="10" height="10" viewBox="0 0 10 10" fill="none" xmlns="http://www.w3.org/2000/svg">
<g clip-path="url(#clip0_2267_1083)">
<path d="M4.58337 7.08325H5.41671V4.58325H4.58337V7.08325ZM5.00004 3.74992C5.1181 3.74992 5.21712 3.70992 5.29712 3.62992C5.37712 3.54992 5.41699 3.45103 5.41671 3.33325C5.41671 3.2152 5.37671 3.11617 5.29671 3.03617C5.21671 2.95617 5.11782 2.91631 5.00004 2.91659C4.88199 2.91659 4.78296 2.95659 4.70296 3.03659C4.62296 3.11659 4.5831 3.21547 4.58337 3.33325C4.58337 3.45131 4.62337 3.55034 4.70337 3.63034C4.78337 3.71034 4.88226 3.7502 5.00004 3.74992ZM5.00004 9.16658C4.42365 9.16658 3.88199 9.05714 3.37504 8.83825C2.8681 8.61936 2.42712 8.32256 2.05212 7.94784C1.67712 7.57284 1.38032 7.13186 1.16171 6.62492C0.943096 6.11797 0.833652 5.57631 0.833374 4.99992C0.833374 4.42353 0.942819 3.88186 1.16171 3.37492C1.3806 2.86797 1.6774 2.427 2.05212 2.052C2.42712 1.677 2.8681 1.3802 3.37504 1.16159C3.88199 0.942974 4.42365 0.83353 5.00004 0.833252C5.57643 0.833252 6.1181 0.942696 6.62504 1.16159C7.13198 1.38047 7.57296 1.67728 7.94796 2.052C8.32296 2.427 8.6199 2.86797 8.83879 3.37492C9.05768 3.88186 9.16698 4.42353 9.16671 4.99992C9.16671 5.57631 9.05726 6.11797 8.83837 6.62492C8.61948 7.13186 8.32268 7.57284 7.94796 7.94784C7.57296 8.32284 7.13198 8.61978 6.62504 8.83867C6.1181 9.05756 5.57643 9.16686 5.00004 9.16658Z" fill="#4079FF"/>
</g>
<defs>
<clipPath id="clip0_2267_1083">
<rect width="10" height="10" fill="white"/>
</clipPath>
</defs>
</svg>
