<svg width="16" height="16" viewBox="0 0 16 16" fill="none" xmlns="http://www.w3.org/2000/svg">
<path d="M7.3335 11.3334H8.66683V7.33337H7.3335V11.3334ZM8.00016 6.00004C8.18905 6.00004 8.3475 5.93604 8.4755 5.80804C8.6035 5.68004 8.66727 5.52182 8.66683 5.33337C8.66683 5.14448 8.60283 4.98604 8.47483 4.85804C8.34683 4.73004 8.18861 4.66626 8.00016 4.66671C7.81127 4.66671 7.65283 4.73071 7.52483 4.85871C7.39683 4.98671 7.33305 5.14493 7.3335 5.33337C7.3335 5.52226 7.3975 5.68071 7.5255 5.80871C7.6535 5.93671 7.81172 6.00048 8.00016 6.00004ZM8.00016 14.6667C7.07794 14.6667 6.21127 14.4916 5.40016 14.1414C4.58905 13.7912 3.8835 13.3163 3.2835 12.7167C2.6835 12.1167 2.20861 11.4112 1.85883 10.6C1.50905 9.78893 1.33394 8.92226 1.3335 8.00004C1.3335 7.07782 1.50861 6.21115 1.85883 5.40004C2.20905 4.58893 2.68394 3.88337 3.2835 3.28337C3.8835 2.68337 4.58905 2.20849 5.40016 1.85871C6.21127 1.50893 7.07794 1.33382 8.00016 1.33337C8.92238 1.33337 9.78905 1.50849 10.6002 1.85871C11.4113 2.20893 12.1168 2.68382 12.7168 3.28337C13.3168 3.88337 13.7919 4.58893 14.1422 5.40004C14.4924 6.21115 14.6673 7.07782 14.6668 8.00004C14.6668 8.92226 14.4917 9.78893 14.1415 10.6C13.7913 11.4112 13.3164 12.1167 12.7168 12.7167C12.1168 13.3167 11.4113 13.7918 10.6002 14.142C9.78905 14.4923 8.92238 14.6672 8.00016 14.6667Z" fill="#52E260"/>
</svg>
