<svg width="31" height="31" viewBox="0 0 31 31" fill="none" xmlns="http://www.w3.org/2000/svg">
<path d="M15.5 0.916748C7.47919 0.916748 0.916687 7.47925 0.916687 15.5001C0.916687 23.5209 7.47919 30.0834 15.5 30.0834C23.5209 30.0834 30.0834 23.5209 30.0834 15.5001C30.0834 7.47925 23.5209 0.916748 15.5 0.916748ZM22.7917 22.7917H8.20835V19.8751H22.7917V22.7917ZM9.66669 18.4167V14.0417H12.5834V18.4167H9.66669ZM14.0417 18.4167V14.0417H16.9584V18.4167H14.0417ZM18.4167 18.4167V14.0417H21.3334V18.4167H18.4167ZM22.7917 12.5834H8.20835V10.3959L15.5 6.75008L22.7917 10.3959V12.5834Z" fill="#169D07"/>
</svg>
